
<svg xmlns="http://www.w3.org/2000/svg" version="1.1" xmlns:xlink="http://www.w3.org/1999/xlink" preserveAspectRatio="none" x="0px" y="0px" width="246px" height="200px" viewBox="0 0 246 200">
<defs>
<g id="Layer0_0_FILL">
<path fill="#00CCFF" stroke="none" d="
M 221.75 473.65
Q 220.05 473.5 219.25 475 218.4 476.55 219.45 477.9 230.25 492.4 252.3 501.9 269.25 509.25 291.65 513.2 309.95 516.45 330.3 517.25 340.6 517.65 347.95 517.4
L 475 517.4
Q 475.05 517.4 478.75 517.35 483.45 517.15 488.7 516.7 505.4 515.3 521.25 511.8 540.6 507.6 556.85 500.55 577.85 491.45 591.8 478.4 593.15 477.15 592.4 475.4 591.65 473.7 589.8 473.8 555 475.95 515.8 477.55 451.45 480.15 398.1 480.15 344.75 480.15 286.45 477.45 250.95 475.8 221.75 473.65
M 559.25 352.1
Q 554.85 356.2 552.95 361.75 551.4 366.3 547.6 382.7 547.2 384.3 548.7 384.95 550.2 385.6 551.1 384.25 562.55 367.05 575.1 361.65 580.5 359.3 585.7 359.4 590.5 359.55 594.6 361.75 598.55 363.9 601.25 367.6 603.95 371.25 605 375.85 606.1 380.55 605.3 385.35 604.45 390.5 601.55 395.1 589.45 414.3 565.55 423.25 550.5 428.9 533.85 429.7 531.5 429.8 529.5 430.85 527.45 431.95 526.1 433.85
L 511.25 454.15
Q 510.7 454.9 511.1 455.7 511.55 456.5 512.45 456.45 525 456.05 541.8 450.8 559.15 445.4 575.05 436.7 592.5 427.2 603.75 416.05 616.35 403.5 619.35 390.6 623.55 372.5 615.45 360 611.95 354.55 606.3 350.75 601.05 347.15 594.5 345.35 588.2 343.65 581.65 343.8 575.1 344 569.35 346.1 563.4 348.25 559.25 352.1
M 542 318.2
Q 538.95 315.55 534.65 315.55
L 273.45 315.55
Q 269.3 315.55 266.3 318.05 263.3 320.55 262.95 324.3 257.8 376.35 282.4 419.4 291.45 435.15 304.1 448.85 313.25 458.75 323.4 466.7 326.3 468.9 329.8 470.1 333.35 471.3 337.1 471.3
L 469.95 471.3
Q 473.6 471.3 477.05 470.15 480.5 469.05 483.3 466.95 522.05 437.9 537 389.65 542.45 371.9 544.4 352.55 545.8 338.45 545.2 324.8 545.05 320.9 542 318.2
M 430.55 227.9
Q 430.3 228.65 430.65 229.35 432.35 232.9 432.15 236.45 432.05 237.5 431.7 238.75 431.3 240.4 430.2 243.05 429.2 245.45 428.05 247.7 427.3 249.2 425.9 251.75
L 425.2 253
Q 422.9 257.25 421.35 261.05 420.55 263.1 419.7 265.75 418.35 269.95 418.3 273.9 418.25 276.7 418.95 281.2 420.75 292.55 427 302.85 427.25 303.3 427.7 303.6 428.15 303.8 428.65 303.8 429.1 303.8 429.45 303.65 430.1 303.35 430.45 302.7 430.75 302.05 430.55 301.35 428.45 293.7 429.25 286.4 429.5 284 430.15 281.35 430.6 279.7 431.9 275.4 432.45 273.4 433.95 269.25 436.65 261.75 437.7 257.7 439.5 250.8 439.25 245.7 439.1 242.7 438.4 239.05 436.95 231.85 434.05 227.4 433.65 226.75 432.9 226.55 432.15 226.4 431.45 226.75 430.75 227.15 430.55 227.9
M 387.45 192.4
Q 387.15 193.3 387.55 194.15 389.6 198.5 389.35 202.85 389.3 204.15 388.9 205.65 388.35 207.7 387 210.9 385.8 213.85 384.4 216.6 383.5 218.4 381.8 221.55
L 380.9 223.1
Q 378.1 228.25 376.2 232.95 375.15 235.55 374.2 238.65 372.55 243.8 372.5 248.65 372.45 252.05 373.3 257.5 375.45 271.4 383.1 284.05 383.4 284.55 383.95 284.85 384.5 285.2 385.15 285.2 385.65 285.2 386.1 285 386.9 284.65 387.3 283.8 387.7 283 387.45 282.15 384.9 272.8 385.85 263.9 386.15 260.9 387 257.75 387.5 255.65 389.05 250.4 389.75 248.15 391.6 242.95 394.9 233.8 396.2 228.8 398.4 220.35 398.1 214.15 397.9 210.45 397 206 395.25 197.25 391.75 191.8 391.25 191 390.3 190.8 389.35 190.55 388.55 191 387.7 191.5 387.45 192.4 Z"/>
</g>
</defs>

<g transform="matrix( 0.6122283935546875, 0, 0, 0.61199951171875, -134,-116.7) ">
<use xlink:href="#Layer0_0_FILL"/>
</g>
</svg>
